<svg width="46" height="46" viewBox="0 0 46 46" fill="none" xmlns="http://www.w3.org/2000/svg">
<rect width="46" height="46" rx="10" fill="#185CFF"/>
<path d="M32.3257 23.0019C32.7285 22.7424 33.1032 22.4416 33.4438 22.1044C34.6914 20.8344 35.3869 19.1231 35.379 17.3428C35.371 15.5625 34.6603 13.8574 33.4015 12.5986C32.1426 11.3397 30.4375 10.629 28.6573 10.6211C26.877 10.6132 25.1656 11.3087 23.8956 12.5563C23.5584 12.8968 23.2576 13.2715 22.9981 13.6744C22.4529 12.8274 21.7249 12.1132 20.8676 11.5844C20.0102 11.0556 19.0453 10.7255 18.0437 10.6183C17.0421 10.5112 16.0292 10.6298 15.0794 10.9653C14.1296 11.3009 13.267 11.8449 12.555 12.5574C11.843 13.2699 11.2996 14.1329 10.9647 15.0829C10.6298 16.0329 10.5119 17.0459 10.6198 18.0474C10.7276 19.049 11.0584 20.0136 11.5878 20.8706C12.1172 21.7276 12.8319 22.4551 13.6793 22.9997C12.8315 23.5444 12.1166 24.272 11.5869 25.1292C11.0573 25.9864 10.7264 26.9514 10.6187 27.9533C10.5109 28.9551 10.6289 29.9684 10.9641 30.9186C11.2993 31.8689 11.8431 32.7319 12.5556 33.4444C13.2681 34.1569 14.1312 34.7007 15.0814 35.0359C16.0317 35.3711 17.0449 35.4892 18.0468 35.3814C19.0486 35.2736 20.0136 34.9427 20.8708 34.4131C21.728 33.8835 22.4556 33.1685 23.0003 32.3208C23.5449 33.1682 24.2725 33.8828 25.1294 34.4122C25.9864 34.9417 26.9511 35.2724 27.9526 35.3803C28.9541 35.4881 29.9671 35.3702 30.9171 35.0354C31.8671 34.7005 32.7301 34.1571 33.4426 33.445C34.1552 32.733 34.6992 31.8704 35.0347 30.9206C35.3703 29.9708 35.4888 28.9579 35.3817 27.9563C35.2746 26.9547 34.9445 25.9898 34.4156 25.1325C33.8868 24.2751 33.1727 23.5471 32.3257 23.0019ZM25.4246 14.0853C26.1752 13.3342 27.1629 12.8667 28.2196 12.7623C29.2762 12.6579 30.3364 12.9231 31.2194 13.5128C32.1024 14.1024 32.7536 14.98 33.062 15.996C33.3705 17.012 33.3171 18.1036 32.9109 19.0846C32.5048 20.0656 31.771 20.8755 30.8347 21.3761C29.8983 21.8768 28.8173 22.0373 27.7759 21.8302C26.7345 21.6232 25.7971 21.0615 25.1235 20.2407C24.4498 19.42 24.0816 18.3911 24.0816 17.3293C24.0804 16.7267 24.1985 16.1298 24.429 15.5731C24.6595 15.0163 24.9979 14.5107 25.4246 14.0853ZM28.6686 33.2572C27.4522 33.2555 26.2862 32.7714 25.4263 31.911C24.5663 31.0507 24.0828 29.8845 24.0816 28.6681H21.919C21.9194 29.5758 21.6506 30.4633 21.1466 31.2182C20.6426 31.9732 19.926 32.5617 19.0875 32.9094C18.249 33.2571 17.3262 33.3483 16.4358 33.1715C15.5455 32.9946 14.7276 32.5577 14.0856 31.916C13.4435 31.2743 13.0063 30.4566 12.829 29.5663C12.6518 28.676 12.7425 27.7532 13.0898 26.9145C13.4371 26.0758 14.0253 25.359 14.78 24.8546C15.5347 24.3503 16.4221 24.0811 17.3298 24.0811V21.9184C16.4222 21.9184 15.5349 21.6493 14.7802 21.145C14.0255 20.6407 13.4373 19.924 13.09 19.0855C12.7427 18.2469 12.6518 17.3242 12.8288 16.434C13.0059 15.5438 13.443 14.726 14.0848 14.0842C14.7266 13.4424 15.5443 13.0054 16.4345 12.8283C17.3247 12.6512 18.2475 12.7421 19.086 13.0894C19.9246 13.4368 20.6413 14.025 21.1456 14.7797C21.6498 15.5343 21.919 16.4216 21.919 17.3293C21.9187 18.2158 22.0931 19.0937 22.4321 19.9129C22.7712 20.7321 23.2683 21.4764 23.8951 22.1034C24.5219 22.7304 25.2661 23.2277 26.0851 23.5671C26.9042 23.9064 27.7821 24.0811 28.6686 24.0811C29.2795 24.0678 29.8869 24.1767 30.4552 24.4013C31.0234 24.6259 31.5411 24.9617 31.9778 25.3891C32.4146 25.8164 32.7616 26.3267 32.9985 26.89C33.2354 27.4532 33.3574 28.0581 33.3574 28.6691C33.3574 29.2802 33.2354 29.8851 32.9985 30.4483C32.7616 31.0116 32.4146 31.5218 31.9778 31.9492C31.5411 32.3765 31.0234 32.7124 30.4552 32.937C29.8869 33.1616 29.2795 33.2705 28.6686 33.2572Z" fill="white"/>
<path d="M32.3257 23.0019C32.7285 22.7424 33.1032 22.4416 33.4438 22.1044C34.6914 20.8344 35.3869 19.1231 35.379 17.3428C35.371 15.5625 34.6603 13.8574 33.4015 12.5986C32.1426 11.3397 30.4375 10.629 28.6573 10.6211C26.877 10.6132 25.1656 11.3087 23.8956 12.5563C23.5584 12.8968 23.2576 13.2715 22.9981 13.6744C22.4529 12.8274 21.7249 12.1132 20.8676 11.5844C20.0102 11.0556 19.0453 10.7255 18.0437 10.6183C17.0421 10.5112 16.0292 10.6298 15.0794 10.9653C14.1296 11.3009 13.267 11.8449 12.555 12.5574C11.843 13.2699 11.2996 14.1329 10.9647 15.0829C10.6298 16.0329 10.5119 17.0459 10.6198 18.0474C10.7276 19.049 11.0584 20.0136 11.5878 20.8706C12.1172 21.7276 12.8319 22.4551 13.6793 22.9997C12.8315 23.5444 12.1166 24.272 11.5869 25.1292C11.0573 25.9864 10.7264 26.9514 10.6187 27.9533C10.5109 28.9551 10.6289 29.9684 10.9641 30.9186C11.2993 31.8689 11.8431 32.7319 12.5556 33.4444C13.2681 34.1569 14.1312 34.7007 15.0814 35.0359C16.0317 35.3711 17.0449 35.4892 18.0468 35.3814C19.0486 35.2736 20.0136 34.9427 20.8708 34.4131C21.728 33.8835 22.4556 33.1685 23.0003 32.3208C23.5449 33.1682 24.2725 33.8828 25.1294 34.4122C25.9864 34.9417 26.9511 35.2724 27.9526 35.3803C28.9541 35.4881 29.9671 35.3702 30.9171 35.0354C31.8671 34.7005 32.7301 34.1571 33.4426 33.445C34.1552 32.733 34.6992 31.8704 35.0347 30.9206C35.3703 29.9708 35.4888 28.9579 35.3817 27.9563C35.2746 26.9547 34.9445 25.9898 34.4156 25.1325C33.8868 24.2751 33.1727 23.5471 32.3257 23.0019ZM25.4246 14.0853C26.1752 13.3342 27.1629 12.8667 28.2196 12.7623C29.2762 12.6579 30.3364 12.9231 31.2194 13.5128C32.1024 14.1024 32.7536 14.98 33.062 15.996C33.3705 17.012 33.3171 18.1036 32.9109 19.0846C32.5048 20.0656 31.771 20.8755 30.8347 21.3761C29.8983 21.8768 28.8173 22.0373 27.7759 21.8302C26.7345 21.6232 25.7971 21.0615 25.1235 20.2407C24.4498 19.42 24.0816 18.3911 24.0816 17.3293C24.0804 16.7267 24.1985 16.1298 24.429 15.5731C24.6595 15.0163 24.9979 14.5107 25.4246 14.0853ZM28.6686 33.2572C27.4522 33.2555 26.2862 32.7714 25.4263 31.911C24.5663 31.0507 24.0828 29.8845 24.0816 28.6681H21.919C21.9194 29.5758 21.6506 30.4633 21.1466 31.2182C20.6426 31.9732 19.926 32.5617 19.0875 32.9094C18.249 33.2571 17.3262 33.3483 16.4358 33.1715C15.5455 32.9946 14.7276 32.5577 14.0856 31.916C13.4435 31.2743 13.0063 30.4566 12.829 29.5663C12.6518 28.676 12.7425 27.7532 13.0898 26.9145C13.4371 26.0758 14.0253 25.359 14.78 24.8546C15.5347 24.3503 16.4221 24.0811 17.3298 24.0811V21.9184C16.4222 21.9184 15.5349 21.6493 14.7802 21.145C14.0255 20.6407 13.4373 19.924 13.09 19.0855C12.7427 18.2469 12.6518 17.3242 12.8288 16.434C13.0059 15.5438 13.443 14.726 14.0848 14.0842C14.7266 13.4424 15.5443 13.0054 16.4345 12.8283C17.3247 12.6512 18.2475 12.7421 19.086 13.0894C19.9246 13.4368 20.6413 14.025 21.1456 14.7797C21.6498 15.5343 21.919 16.4216 21.919 17.3293C21.9187 18.2158 22.0931 19.0937 22.4321 19.9129C22.7712 20.7321 23.2683 21.4764 23.8951 22.1034C24.5219 22.7304 25.2661 23.2277 26.0851 23.5671C26.9042 23.9064 27.7821 24.0811 28.6686 24.0811C29.2795 24.0678 29.8869 24.1767 30.4552 24.4013C31.0234 24.6259 31.5411 24.9617 31.9778 25.3891C32.4146 25.8164 32.7616 26.3267 32.9985 26.89C33.2354 27.4532 33.3574 28.0581 33.3574 28.6691C33.3574 29.2802 33.2354 29.8851 32.9985 30.4483C32.7616 31.0116 32.4146 31.5218 31.9778 31.9492C31.5411 32.3765 31.0234 32.7124 30.4552 32.937C29.8869 33.1616 29.2795 33.2705 28.6686 33.2572Z" stroke="white"/>
</svg>
