<svg width="215" height="46" viewBox="0 0 215 46" fill="none" xmlns="http://www.w3.org/2000/svg">
<rect width="46" height="46" rx="10" fill="#F1F6FA"/>
<path d="M32.3257 23.0019C32.7286 22.7424 33.1033 22.4416 33.4438 22.1044C34.6914 20.8344 35.3869 19.1231 35.379 17.3428C35.3711 15.5625 34.6603 13.8574 33.4015 12.5986C32.1426 11.3397 30.4376 10.629 28.6573 10.6211C26.877 10.6132 25.1657 11.3087 23.8957 12.5563C23.5585 12.8968 23.2577 13.2715 22.9982 13.6744C22.4529 12.8274 21.7249 12.1132 20.8676 11.5844C20.0102 11.0556 19.0453 10.7255 18.0437 10.6183C17.0421 10.5112 16.0292 10.6298 15.0794 10.9653C14.1297 11.3009 13.2671 11.8449 12.555 12.5574C11.843 13.2699 11.2996 14.1329 10.9647 15.0829C10.6298 16.0329 10.512 17.0459 10.6198 18.0474C10.7276 19.049 11.0584 20.0136 11.5878 20.8706C12.1173 21.7276 12.8319 22.4551 13.6793 22.9997C12.8315 23.5444 12.1166 24.272 11.587 25.1292C11.0573 25.9864 10.7265 26.9514 10.6187 27.9533C10.5109 28.9551 10.6289 29.9684 10.9641 30.9186C11.2993 31.8689 11.8431 32.7319 12.5556 33.4444C13.2681 34.1569 14.1312 34.7007 15.0815 35.0359C16.0317 35.3711 17.045 35.4892 18.0468 35.3814C19.0486 35.2736 20.0136 34.9427 20.8708 34.4131C21.728 33.8835 22.4557 33.1685 23.0003 32.3208C23.545 33.1682 24.2725 33.8828 25.1295 34.4122C25.9864 34.9417 26.9511 35.2724 27.9526 35.3803C28.9542 35.4881 29.9671 35.3702 30.9172 35.0354C31.8672 34.7005 32.7301 34.1571 33.4427 33.445C34.1552 32.733 34.6992 31.8704 35.0348 30.9206C35.3703 29.9708 35.4889 28.9579 35.3817 27.9563C35.2746 26.9547 34.9445 25.9898 34.4157 25.1325C33.8868 24.2751 33.1727 23.5471 32.3257 23.0019V23.0019ZM25.4247 14.0853C26.1752 13.3342 27.163 12.8667 28.2196 12.7623C29.2762 12.6579 30.3364 12.9231 31.2194 13.5128C32.1024 14.1024 32.7536 14.98 33.0621 15.996C33.3705 17.012 33.3171 18.1036 32.9109 19.0846C32.5048 20.0656 31.771 20.8755 30.8347 21.3761C29.8983 21.8768 28.8174 22.0373 27.776 21.8302C26.7345 21.6232 25.7972 21.0614 25.1235 20.2407C24.4499 19.42 24.0817 18.3911 24.0817 17.3293C24.0805 16.7267 24.1985 16.1298 24.429 15.5731C24.6595 15.0163 24.9979 14.5107 25.4247 14.0853ZM28.6686 33.2572C27.4522 33.2555 26.2862 32.7714 25.4263 31.911C24.5664 31.0507 24.0828 29.8844 24.0817 28.6681H21.919C21.9194 29.5758 21.6506 30.4633 21.1466 31.2182C20.6426 31.9732 19.9261 32.5617 19.0875 32.9094C18.249 33.2571 17.3262 33.3483 16.4359 33.1715C15.5455 32.9946 14.7276 32.5577 14.0856 31.916C13.4436 31.2743 13.0063 30.4566 12.829 29.5663C12.6518 28.676 12.7425 27.7532 13.0898 26.9145C13.4371 26.0758 14.0253 25.359 14.78 24.8546C15.5348 24.3503 16.4221 24.0811 17.3298 24.0811V21.9184C16.4222 21.9184 15.5349 21.6493 14.7803 21.145C14.0256 20.6407 13.4374 19.924 13.09 19.0855C12.7427 18.2469 12.6518 17.3242 12.8289 16.434C13.0059 15.5438 13.443 14.726 14.0848 14.0842C14.7266 13.4424 15.5443 13.0054 16.4345 12.8283C17.3248 12.6512 18.2475 12.7421 19.086 13.0894C19.9246 13.4368 20.6413 14.025 21.1456 14.7797C21.6499 15.5343 21.919 16.4216 21.919 17.3293C21.9187 18.2158 22.0931 19.0937 22.4322 19.9129C22.7712 20.7321 23.2684 21.4764 23.8952 22.1034C24.5219 22.7304 25.2661 23.2277 26.0852 23.5671C26.9042 23.9064 27.7821 24.0811 28.6686 24.0811C29.2795 24.0678 29.8869 24.1767 30.4552 24.4013C31.0235 24.6259 31.5411 24.9617 31.9779 25.3891C32.4146 25.8164 32.7616 26.3267 32.9985 26.89C33.2354 27.4532 33.3574 28.0581 33.3574 28.6691C33.3574 29.2802 33.2354 29.8851 32.9985 30.4483C32.7616 31.0116 32.4146 31.5218 31.9779 31.9492C31.5411 32.3765 31.0235 32.7124 30.4552 32.937C29.8869 33.1616 29.2795 33.2705 28.6686 33.2572V33.2572Z" fill="#194060"/>
<path d="M55.2 22.372C55.2 18.6554 57.4975 15.6437 61.638 15.6437C65.7785 15.6437 67.5962 18.1556 67.5962 21.462C67.5966 21.9689 67.5544 22.4748 67.47 22.9743H58.2801C58.4569 25.153 59.6435 26.5371 61.9157 26.5371C64.5414 26.5371 65.122 25.153 65.122 25.153H67.3312V26.8318C67.3312 26.8318 66.0688 29.113 61.8778 29.113C57.4564 29.113 55.2 26.2679 55.2 22.372ZM64.6171 20.8597C64.6171 19.3731 63.6703 18.194 61.638 18.194C59.6056 18.194 58.7093 19.2962 58.3811 20.8597H64.6171Z" fill="#F1F6FA"/>
<path d="M68.6219 26.7293V25.0376H70.7931C70.8184 25.1914 71.6768 26.6396 73.8985 26.6396C75.5648 26.6396 76.1076 26.0757 76.1076 25.2299C76.1076 24.179 75.0725 23.9227 73.7092 23.6279L72.2448 23.346C70.3261 23.0256 68.8365 21.9619 68.8365 19.6294C68.8365 17.4251 70.5533 15.6053 73.6334 15.6053C76.4358 15.6053 77.7739 16.7074 78.3041 17.848V19.5397H76.1581C76.1329 19.4115 75.5269 18.0531 73.6082 18.0531C72.1943 18.0531 71.6642 18.6682 71.6642 19.4884C71.6642 20.3086 72.4216 20.7444 73.5577 20.975L75.022 21.257C77.0922 21.6415 78.91 22.4873 78.91 24.9223C78.91 27.306 77.168 29.0874 73.8859 29.0874C70.1367 29.113 68.7734 27.0881 68.6219 26.7293Z" fill="#F1F6FA"/>
<path d="M81.1602 24.3712V18.5272H79.1656V15.9384H81.2359L81.4126 12.7089H84.215V15.9384H89.2139V18.5272H84.215V24.1661C84.215 25.6528 84.6947 26.4986 86.0076 26.4986C87.3709 26.4986 87.5224 25.499 87.5224 25.3708H89.6463V27.0881C89.1666 28.0493 88.1062 29.113 85.8845 29.113C82.8012 29.113 81.1602 27.3957 81.1602 24.3712Z" fill="#F1F6FA"/>
<path d="M90.5173 10.1201H93.7741V13.2728H90.5173V10.1201ZM90.6183 15.9385H93.6732V28.8055H90.6183V15.9385Z" fill="#F1F6FA"/>
<path d="M95.8791 15.9385H98.6847L98.8614 17.5789C99.1995 16.9791 99.6887 16.4814 100.279 16.1368C100.869 15.7922 101.539 15.6132 102.219 15.6181C104.088 15.6181 105.249 16.4895 105.855 17.7711C106.247 17.0975 106.81 16.5427 107.485 16.1641C108.16 15.7855 108.922 15.597 109.692 15.6181C112.823 15.6181 114.035 17.9762 114.035 20.8213V28.8055H110.955V21.116C110.955 19.4756 110.374 18.3222 108.834 18.3222C107.067 18.3222 106.461 19.7576 106.461 20.9879V28.8055H103.456V21.0648C103.456 19.4243 102.85 18.3222 101.336 18.3222C99.5178 18.3222 98.9371 19.8601 98.9371 21.3211V28.8055H95.8791V15.9385Z" fill="#F1F6FA"/>
<path d="M115.433 25.1145C115.433 22.8333 117.011 21.2185 120.709 21.2185C121.602 21.2243 122.491 21.3318 123.36 21.5389V20.8341C123.36 19.1168 122.628 18.2453 120.911 18.2453C118.993 18.2453 118.336 19.6294 118.336 19.6294H116.156V17.9377C116.156 17.9377 117.317 15.6309 120.978 15.6309C124.563 15.6309 126.431 17.4251 126.431 20.911V28.8054H123.805L123.528 27.0369C123.116 27.6933 122.544 28.2298 121.867 28.5938C121.19 28.9578 120.431 29.1367 119.665 29.113C116.847 29.113 115.433 27.3188 115.433 25.1145ZM123.36 24.1918V23.5766C122.527 23.3614 121.67 23.2537 120.81 23.2562C118.993 23.2562 118.462 24.0764 118.462 24.9479C118.462 26.127 119.169 26.6396 120.432 26.6396C122.325 26.6524 123.36 25.2683 123.36 24.1918Z" fill="#F1F6FA"/>
<path d="M129.167 24.3712V18.5272H127.173V15.9384H129.243L129.41 12.7089H132.213V15.9384H137.211V18.5272H132.222V24.1661C132.222 25.6528 132.702 26.4986 134.015 26.4986C135.378 26.4986 135.529 25.499 135.529 25.3708H137.65V27.0881C137.17 28.0493 136.11 29.113 133.888 29.113C130.808 29.113 129.167 27.3957 129.167 24.3712Z" fill="#F1F6FA"/>
<path d="M137.959 22.372C137.959 18.6554 140.257 15.6437 144.397 15.6437C148.538 15.6437 150.356 18.1556 150.356 21.462C150.356 21.9689 150.314 22.4748 150.229 22.9743H141.04C141.216 25.153 142.403 26.5371 144.675 26.5371C147.301 26.5371 147.881 25.153 147.881 25.153H150.091V26.8318C150.091 26.8318 148.828 29.113 144.637 29.113C140.206 29.113 137.959 26.2679 137.959 22.372ZM147.377 20.8597C147.377 19.3731 146.43 18.194 144.397 18.194C142.365 18.194 141.469 19.2962 141.141 20.8597H147.377Z" fill="#F1F6FA"/>
<path d="M151.381 26.7293V25.0376H153.553C153.578 25.1914 154.436 26.6396 156.658 26.6396C158.324 26.6396 158.883 26.0757 158.883 25.2299C158.883 24.179 157.848 23.9227 156.484 23.6279L155.017 23.346C153.098 23.0256 151.609 21.9619 151.609 19.6294C151.609 17.4251 153.328 15.6053 156.405 15.6053C159.208 15.6053 160.546 16.7074 161.079 17.848V19.5397H158.93C158.905 19.4115 158.299 18.0531 156.38 18.0531C154.97 18.0531 154.436 18.6682 154.436 19.4884C154.436 20.3086 155.197 20.7444 156.33 20.975L157.797 21.257C159.864 21.6415 161.685 22.4873 161.685 24.9223C161.685 27.306 159.943 29.0874 156.658 29.0874C152.896 29.113 151.533 27.0881 151.381 26.7293Z" fill="#F1F6FA"/>
<path d="M163.908 32.4195V30.7278H166.152C166.152 30.7278 166.834 32.7014 169.535 32.7014C172.11 32.7014 173.376 30.9329 173.376 28.1647V26.8575C172.464 28.1903 170.974 29.0105 169.081 29.0105C165.47 29.0105 163.274 25.986 163.274 22.3463C163.274 18.6298 165.483 15.6181 169.106 15.6181C169.95 15.5927 170.786 15.7852 171.537 16.1774C172.287 16.5697 172.928 17.1489 173.398 17.8608L173.631 15.9385H176.472V28.1134C176.472 32.6245 173.818 35.4824 169.601 35.4824C165.12 35.4824 163.908 32.4195 163.908 32.4195ZM173.376 22.3207C173.376 20.1164 172.012 18.3222 169.863 18.3222C167.515 18.3222 166.329 20.1164 166.329 22.3207C166.329 24.525 167.515 26.3448 169.863 26.3448C172.016 26.3448 173.379 24.5506 173.379 22.3207H173.376Z" fill="#F1F6FA"/>
<path d="M178.583 23.7561V15.9385H181.638V23.3716C181.638 25.1658 182.345 26.4217 184.137 26.4217C186.309 26.4217 186.978 24.8198 186.978 23.3716V15.9385H190.058V28.8055H187.217L187.041 27.0882C186.628 27.7221 186.065 28.24 185.403 28.594C184.741 28.948 184.002 29.1265 183.254 29.113C179.845 29.113 178.583 26.6781 178.583 23.7561Z" fill="#F1F6FA"/>
<path d="M192.298 15.9385H195.101L195.277 17.6302C195.626 16.9963 196.141 16.4729 196.765 16.1177C197.389 15.7626 198.097 15.5897 198.812 15.6181C200.706 15.6181 201.741 16.6433 201.968 17.9505V19.6935H199.759C199.734 19.6935 199.532 18.2581 197.764 18.2581C196.123 18.2581 195.341 19.6166 195.341 21.4364V28.8055H192.286L192.298 15.9385Z" fill="#F1F6FA"/>
<path d="M202.713 23.7561V15.9385H205.768V23.3716C205.768 25.1658 206.475 26.4217 208.267 26.4217C210.438 26.4217 211.107 24.8198 211.107 23.3716V15.9385H214.187V28.8055H211.347L211.17 27.0882C210.758 27.7221 210.195 28.24 209.533 28.594C208.871 28.948 208.132 29.1265 207.383 29.113C203.975 29.113 202.713 26.6781 202.713 23.7561Z" fill="#F1F6FA"/>
</svg>
