<svg width="42" height="42" viewBox="0 0 42 42" fill="none" xmlns="http://www.w3.org/2000/svg">
<path d="M6.29928 5.22693C6.29622 4.94845 6.18266 4.6826 5.98358 4.48785C5.7845 4.2931 5.51621 4.18542 5.23773 4.18848C4.95925 4.19154 4.6934 4.3051 4.49865 4.50418C4.30391 4.70326 4.19622 4.97155 4.19928 5.25003V36.75C4.19928 37.0285 4.30991 37.2956 4.50682 37.4925C4.70373 37.6894 4.9708 37.8 5.24928 37.8H36.7493C37.0278 37.8 37.2948 37.6894 37.4917 37.4925C37.6887 37.2956 37.7993 37.0285 37.7993 36.75C37.7993 36.4716 37.6887 36.2045 37.4917 36.0076C37.2948 35.8107 37.0278 35.7 36.7493 35.7H6.29928V5.22693ZM33.5993 33.6V11.55C33.599 11.3525 33.543 11.159 33.4377 10.9918C33.3323 10.8246 33.182 10.6906 33.0039 10.605C32.8258 10.5195 32.6272 10.4859 32.4308 10.5082C32.2345 10.5305 32.0485 10.6077 31.8941 10.731L21.9506 18.6837L15.2201 14.8386C15.0773 14.7572 14.9175 14.7104 14.7533 14.702C14.5892 14.6936 14.4254 14.7239 14.2751 14.7903L8.39928 17.4006V33.6H33.5993Z" fill="#185CFF"/>
</svg>
